<?xml version="1.0" encoding="UTF-8" standalone="no"?>
<svg
   xmlns:svg="http://www.w3.org/2000/svg"
   xmlns="http://www.w3.org/2000/svg"
   version="1.1"
   x="0px"
   y="0px"
   width="517.72101"
   height="187.74899"
   viewBox="0 0 517.72101 187.74899"
   xml:space="preserve"><path
     d="M 86.96,53.717 86.96,52.133 C 88.256,52.061 92.216,51.7 93.225,51.196 94.881,50.332 95.529,49.18 95.529,47.524 L 95.529,10.657 76.88,52.925 75.512,52.925 C 74.648,50.116 73.064,46.012 71.696,42.916 L 57.727,11.665 57.727,40.035 C 57.727,45.508 58.591,48.604 60.175,49.9 61.399,50.908 66.296,52.06 67.592,52.132 L 67.592,53.716 45.989,53.716 45.989,52.132 C 47.213,51.987 50.958,51.556 52.686,50.331 54.414,49.107 55.062,45.939 55.062,40.394 L 55.062,14.04 C 55.062,11.088 54.27,9.288 52.83,8.136 51.102,6.768 48.293,6.192 46.35,6.12 L 46.35,4.535 62.551,4.535 79.257,41.186 92.722,10.656 C 93.874,7.992 94.306,5.328 94.378,4.535 L 110.651,4.535 110.651,6.12 C 109.355,6.191 106.619,6.624 105.323,7.056 103.523,7.632 103.091,9 103.091,10.584 L 103.091,47.523 C 103.091,49.107 103.667,50.259 105.323,51.051 106.187,51.483 109.427,52.059 110.723,52.131 L 110.723,53.715 86.96,53.715 Z"
      /><path
     d="M 137.928,54.436 C 134.544,54.436 132.743,52.924 131.591,49.612 L 131.375,49.612 C 128.783,52.636 125.039,54.581 120.718,54.581 115.749,54.581 112.365,51.557 112.365,46.948 112.365,41.044 115.822,39.027 119.422,37.659 123.526,36.075 128.495,34.851 131.519,33.123 L 131.519,29.091 C 131.519,27.795 131.303,21.819 125.327,21.819 122.591,21.819 121.582,23.475 120.934,24.267 120.934,25.347 121.582,26.931 121.582,28.515 121.582,30.027 119.998,31.612 117.406,31.612 115.03,31.612 114.166,29.739 114.166,27.867 114.166,23.547 120.287,20.235 125.759,20.235 132.887,20.235 138.144,21.315 138.144,30.891 138.144,37.228 137.784,44.644 137.784,47.021 137.784,48.101 138.792,50.693 141.168,50.693 143.544,50.693 143.76,47.885 143.976,45.149 L 145.56,45.149 C 145.129,51.845 142.392,54.436 137.928,54.436 Z M 119.35,45.868 C 119.35,49.828 121.15,51.629 124.246,51.629 127.99,51.629 129.574,49.973 131.303,47.813 L 131.591,35.211 C 124.391,37.443 119.35,39.46 119.35,45.868 Z"
      /><path
     d="M 159.591,54.724 C 156.063,54.724 152.246,53.068 151.023,51.844 L 150.303,54.076 147.927,54.076 147.567,42.915 149.079,42.915 C 149.871,46.443 154.191,52.996 159.952,52.996 164.992,52.996 166.721,50.331 166.721,46.803 166.721,43.059 163.912,41.547 158.296,39.891 153.688,38.523 148.503,35.859 148.503,29.666 148.503,24.337 152.607,20.233 159.304,20.233 162.113,20.233 164.992,20.88 166.793,22.105 L 167.369,20.161 169.601,20.161 170.105,30.098 168.593,30.098 C 167.873,25.994 164.2,21.889 159.088,21.889 154.695,21.889 153.471,24.41 153.471,27.074 153.471,31.178 155.919,31.97 161.896,33.915 167.801,35.859 171.689,38.523 171.689,44.428 171.688,50.837 166.36,54.724 159.591,54.724 Z"
      /><path
     d="M 188.304,54.724 C 184.776,54.724 180.959,53.068 179.736,51.844 L 179.016,54.076 176.64,54.076 176.28,42.915 177.792,42.915 C 178.584,46.443 182.904,52.996 188.665,52.996 193.705,52.996 195.434,50.331 195.434,46.803 195.434,43.059 192.625,41.547 187.009,39.891 182.401,38.523 177.216,35.859 177.216,29.666 177.216,24.337 181.32,20.233 188.017,20.233 190.826,20.233 193.705,20.88 195.506,22.105 L 196.082,20.161 198.314,20.161 198.818,30.098 197.306,30.098 C 196.586,25.994 192.913,21.889 187.801,21.889 183.408,21.889 182.184,24.41 182.184,27.074 182.184,31.178 184.632,31.97 190.609,33.915 196.514,35.859 200.402,38.523 200.402,44.428 200.401,50.837 195.073,54.724 188.304,54.724 Z"
      /><path
     d="M 230.914,54.436 C 227.53,54.436 225.729,52.924 224.577,49.612 L 224.361,49.612 C 221.769,52.636 218.025,54.581 213.704,54.581 208.735,54.581 205.351,51.557 205.351,46.948 205.351,41.044 208.808,39.027 212.408,37.659 216.512,36.075 221.481,34.851 224.505,33.123 L 224.505,29.091 C 224.505,27.795 224.289,21.819 218.313,21.819 215.577,21.819 214.568,23.475 213.92,24.267 213.92,25.347 214.568,26.931 214.568,28.515 214.568,30.027 212.984,31.612 210.392,31.612 208.016,31.612 207.152,29.739 207.152,27.867 207.152,23.547 213.273,20.235 218.745,20.235 225.873,20.235 231.13,21.315 231.13,30.891 231.13,37.228 230.77,44.644 230.77,47.021 230.77,48.101 231.778,50.693 234.154,50.693 236.53,50.693 236.746,47.885 236.962,45.149 L 238.546,45.149 C 238.115,51.845 235.379,54.436 230.914,54.436 Z M 212.337,45.868 C 212.337,49.828 214.137,51.629 217.233,51.629 220.977,51.629 222.561,49.973 224.29,47.813 L 224.578,35.211 C 217.377,37.443 212.337,39.46 212.337,45.868 Z"
      /><path
     d="M 254.738,54.581 C 244.297,54.581 239.113,47.236 239.113,37.3 239.113,28.443 245.234,20.235 255.098,20.235 262.514,20.235 266.259,24.195 266.259,28.588 266.259,30.964 265.034,32.62 262.514,32.62 261.074,32.62 258.482,31.828 258.482,29.019 258.482,25.995 259.418,25.923 259.418,24.555 259.058,22.466 257.618,21.962 255.098,21.962 250.849,21.962 246.385,25.778 246.385,36.651 246.385,45.076 250.13,51.413 256.466,51.413 261.579,51.413 264.316,49.181 266.691,45.004 L 268.06,46.012 C 265.395,50.764 260.426,54.581 254.738,54.581 Z"
      /><path
     d="M 288.936,53.717 288.936,52.277 C 290.233,52.206 291.313,52.061 292.321,51.773 293.69,51.341 294.266,50.117 294.266,48.533 L 294.266,31.179 C 294.266,26.21 291.385,23.475 288.289,23.475 283.031,23.475 280.08,26.859 279.287,28.515 L 279.287,48.172 C 279.287,49.757 279.935,50.837 281.232,51.413 282.312,51.917 283.32,52.205 284.615,52.276 L 284.615,53.716 267.623,53.716 267.623,52.276 C 268.918,52.205 269.783,52.06 270.791,51.772 272.158,51.34 272.734,50.116 272.734,48.532 L 272.734,7.489 C 272.591,5.976 271.943,4.104 270.791,3.312 269.926,2.736 267.262,2.232 265.967,2.16 L 265.967,0.792 278.783,0 279.287,0.504 279.287,26.139 279.432,26.139 C 282.168,23.475 285.049,20.235 291.241,20.235 297.938,20.235 300.889,24.771 300.889,31.612 L 300.889,48.245 C 300.889,49.829 301.465,50.909 302.762,51.485 303.77,51.918 304.633,52.206 305.93,52.277 L 305.93,53.717 288.936,53.717 Z"
      /><path
     d="M 331.41,53.86 330.906,53.356 330.906,48.964 330.689,48.964 C 327.953,51.699 325.361,54.58 319.169,54.58 312.472,54.58 309.808,49.611 309.808,42.843 L 309.808,27.722 C 309.663,26.209 309.087,24.913 307.935,24.121 307.072,23.545 305.632,23.041 304.335,22.969 L 304.335,21.601 315.929,20.738 316.433,21.242 316.433,44.139 C 316.433,49.108 319.025,51.7 322.121,51.7 327.377,51.7 329.898,48.316 330.834,46.804 L 330.834,27.507 C 330.689,25.994 330.113,24.698 328.961,23.906 328.098,23.33 326.154,23.042 324.281,22.969 L 324.281,21.601 336.883,20.738 337.387,21.242 337.387,47.308 C 337.532,48.82 338.108,49.972 339.258,50.764 340.123,51.34 341.418,51.628 342.715,51.7 L 342.715,53.068 331.41,53.86 Z"
      /><path
     d="M 357.321,54.724 C 353.794,54.724 349.977,53.068 348.753,51.844 L 348.032,54.076 345.657,54.076 345.298,42.915 346.81,42.915 C 347.601,46.443 351.921,52.996 357.683,52.996 362.722,52.996 364.451,50.331 364.451,46.803 364.451,43.059 361.642,41.547 356.027,39.891 351.418,38.523 346.234,35.859 346.234,29.666 346.234,24.337 350.338,20.233 357.035,20.233 359.844,20.233 362.723,20.88 364.523,22.105 L 365.099,20.161 367.331,20.161 367.835,30.098 366.323,30.098 C 365.602,25.994 361.93,21.889 356.817,21.889 352.424,21.889 351.202,24.41 351.202,27.074 351.202,31.178 353.649,31.97 359.626,33.915 365.53,35.859 369.419,38.523 369.419,44.428 369.419,50.837 364.091,54.724 357.321,54.724 Z"
      /><path
     d="M 388.922,54.581 C 378.049,54.581 373.01,46.66 373.01,37.155 373.01,28.514 378.553,20.234 388.131,20.234 397.994,20.234 401.596,26.714 401.596,34.059 L 401.596,34.706 380.137,34.706 380.137,35.498 C 380.137,44.787 383.162,51.412 390.867,51.412 396.482,51.412 398.283,49.395 401.019,45.003 L 402.314,45.867 C 399.795,50.98 394.971,54.581 388.922,54.581 Z M 388.058,21.89 C 383.521,21.89 380.353,26.355 380.136,33.123 L 394.611,32.979 C 394.611,27.795 393.531,21.89 388.058,21.89 Z"
      /><path
     d="M 417.212,54.436 C 411.306,54.436 408.499,50.908 408.499,44.499 L 408.499,24.409 401.585,24.409 401.585,21.313 408.642,21.313 408.642,10.152 414.908,10.152 414.908,21.313 424.773,21.313 424.773,24.409 414.979,24.409 414.979,43.635 C 414.979,47.739 416.131,50.404 420.522,50.404 424.196,50.404 424.483,47.524 424.915,44.788 L 426.499,44.788 C 425.923,49.973 422.54,54.436 417.212,54.436 Z"
      /><path
     d="M 440.028,54.436 C 434.124,54.436 431.315,50.908 431.315,44.499 L 431.315,24.409 424.403,24.409 424.403,21.313 431.46,21.313 431.46,10.152 437.724,10.152 437.724,21.313 447.589,21.313 447.589,24.409 437.796,24.409 437.796,43.635 C 437.796,47.739 438.948,50.404 443.341,50.404 447.013,50.404 447.302,47.524 447.734,44.788 L 449.318,44.788 C 448.741,49.973 445.356,54.436 440.028,54.436 Z"
      /><path
     d="M 463.347,54.724 C 459.82,54.724 456.003,53.068 454.779,51.844 L 454.058,54.076 451.683,54.076 451.324,42.915 452.836,42.915 C 453.627,46.443 457.947,52.996 463.709,52.996 468.748,52.996 470.477,50.331 470.477,46.803 470.477,43.059 467.668,41.547 462.053,39.891 457.444,38.523 452.26,35.859 452.26,29.666 452.26,24.337 456.364,20.233 463.061,20.233 465.87,20.233 468.749,20.88 470.549,22.105 L 471.125,20.161 473.357,20.161 473.861,30.098 472.349,30.098 C 471.628,25.994 467.956,21.889 462.843,21.889 458.45,21.889 457.228,24.41 457.228,27.074 457.228,31.178 459.675,31.97 465.652,33.915 471.556,35.859 475.445,38.523 475.445,44.428 475.444,50.837 470.116,54.724 463.347,54.724 Z"
      /><path
     d="M 32.331,119.963 32.331,118.379 C 33.627,118.307 36.58,118.019 37.516,117.659 39.245,117.011 39.748,115.715 39.748,114.131 L 39.748,95.553 14.906,95.553 14.906,113.771 C 14.906,115.355 15.482,116.579 17.138,117.299 18.002,117.659 21.026,118.307 22.322,118.379 L 22.322,119.963 0,119.963 0,118.379 C 1.296,118.307 4.104,118.019 5.041,117.659 6.769,117.011 7.273,115.715 7.273,114.131 L 7.273,77.192 C 7.273,75.608 6.769,74.383 5.041,73.664 3.817,73.16 1.296,72.439 0,72.368 L 0,70.783 22.322,70.783 22.322,72.368 C 21.026,72.439 18.434,72.872 17.138,73.304 15.338,73.88 14.906,75.248 14.906,76.832 L 14.906,93.178 39.748,93.178 39.748,77.193 C 39.748,75.609 39.172,74.384 37.516,73.665 36.292,73.161 33.628,72.44 32.331,72.369 L 32.331,70.784 54.653,70.784 54.653,72.369 C 53.357,72.44 50.908,72.873 49.612,73.305 47.812,73.881 47.38,75.249 47.38,76.833 L 47.38,113.772 C 47.38,115.356 47.956,116.508 49.612,117.3 50.476,117.732 53.356,118.308 54.653,118.38 L 54.653,119.964 32.331,119.964 Z"
      /><path
     d="M 56.089,119.963 56.089,118.523 C 57.385,118.452 58.25,118.307 59.257,118.019 60.625,117.587 61.201,116.219 61.201,114.779 L 61.201,94.112 C 61.057,92.6 60.409,91.304 59.257,90.512 58.393,89.936 56.305,89.215 55.008,89.144 L 55.008,87.776 67.249,86.984 67.753,87.488 67.753,114.346 C 67.753,115.858 68.401,117.082 69.697,117.658 70.849,118.162 71.929,118.45 72.865,118.521 L 72.865,119.961 56.089,119.961 Z M 63.866,78.264 C 61.49,78.264 59.473,76.247 59.473,73.871 59.473,71.423 61.49,69.334 63.866,69.334 66.53,69.334 68.403,71.278 68.403,73.583 68.402,76.103 66.458,78.264 63.866,78.264 Z"
      /><path
     d="M 87.913,120.971 C 84.385,120.971 80.568,119.315 79.345,118.091 L 78.625,120.323 76.249,120.323 75.889,109.162 77.401,109.162 C 78.193,112.69 82.513,119.243 88.274,119.243 93.314,119.243 95.043,116.578 95.043,113.05 95.043,109.306 92.234,107.794 86.618,106.138 82.01,104.77 76.825,102.106 76.825,95.913 76.825,90.584 80.929,86.48 87.626,86.48 90.435,86.48 93.314,87.127 95.115,88.352 L 95.691,86.408 97.923,86.408 98.427,96.345 96.915,96.345 C 96.195,92.241 92.522,88.136 87.41,88.136 83.017,88.136 81.793,90.657 81.793,93.321 81.793,97.425 84.241,98.217 90.218,100.162 96.123,102.106 100.011,104.77 100.011,110.675 100.011,117.083 94.682,120.971 87.913,120.971 Z"
      /><path
     d="M 116.137,120.682 C 110.233,120.682 107.425,117.154 107.425,110.745 L 107.425,90.655 100.512,90.655 100.512,87.559 107.568,87.559 107.568,76.398 113.833,76.398 113.833,87.559 123.698,87.559 123.698,90.655 113.906,90.655 113.906,109.881 C 113.906,113.985 115.058,116.65 119.45,116.65 123.122,116.65 123.41,113.77 123.842,111.034 L 125.426,111.034 C 124.85,116.219 121.465,120.682 116.137,120.682 Z"
      /><path
     d="M 141.768,120.971 C 133.127,120.971 125.495,114.418 125.495,103.833 125.495,93.608 132.191,86.48 142.272,86.48 152.353,86.48 158.689,93.752 158.689,103.329 158.69,112.906 152.641,120.971 141.768,120.971 Z M 142.2,88.136 C 134.712,88.136 132.767,96.417 132.767,103.258 132.767,111.826 135.431,119.315 142.2,119.315 148.609,119.315 151.417,112.043 151.417,103.402 151.417,95.841 149.185,88.136 142.2,88.136 Z"
      /><path
     d="M 183.312,95.553 C 181.008,95.553 179.424,94.545 179.424,92.097 179.424,91.376 179.928,90.801 179.928,89.865 176.256,89.865 173.592,92.962 172.727,94.546 L 172.727,114.419 C 172.727,116.004 173.375,117.155 174.671,117.66 175.895,118.164 177.983,118.452 179.351,118.523 L 179.351,119.963 161.061,119.963 161.061,118.523 C 162.357,118.452 163.221,118.307 164.229,118.019 165.597,117.587 166.173,116.363 166.173,114.779 L 166.173,94.112 C 166.029,92.6 165.381,91.089 164.229,90.296 163.365,89.721 161.997,89.216 160.701,89.145 L 160.701,87.777 172.222,86.985 172.726,87.489 172.726,92.385 172.87,92.385 C 175.966,88.424 179.566,86.624 182.591,86.624 184.823,86.624 187.128,88.641 187.128,91.017 187.129,93.536 185.761,95.553 183.312,95.553 Z"
      /><path
     d="M 188.853,119.963 188.853,118.523 C 190.149,118.452 191.014,118.307 192.021,118.019 193.389,117.587 193.965,116.219 193.965,114.779 L 193.965,94.112 C 193.821,92.6 193.173,91.304 192.021,90.512 191.157,89.936 189.069,89.215 187.772,89.144 L 187.772,87.776 200.013,86.984 200.517,87.488 200.517,114.346 C 200.517,115.858 201.165,117.082 202.461,117.658 203.613,118.162 204.693,118.45 205.629,118.521 L 205.629,119.961 188.853,119.961 Z M 196.63,78.264 C 194.254,78.264 192.238,76.247 192.238,73.871 192.238,71.423 194.254,69.334 196.63,69.334 199.294,69.334 201.167,71.278 201.167,73.583 201.166,76.103 199.222,78.264 196.63,78.264 Z"
      /><path
     d="M 222.277,120.827 C 211.836,120.827 206.652,113.482 206.652,103.546 206.652,94.689 212.773,86.481 222.637,86.481 230.054,86.481 233.798,90.441 233.798,94.834 233.798,97.21 232.574,98.866 230.053,98.866 228.613,98.866 226.021,98.074 226.021,95.265 226.021,92.241 226.957,92.169 226.957,90.801 226.597,88.712 225.157,88.208 222.637,88.208 218.388,88.208 213.924,92.024 213.924,102.897 213.924,111.322 217.669,117.659 224.005,117.659 229.117,117.659 231.854,115.427 234.23,111.25 L 235.598,112.258 C 232.933,117.011 227.965,120.827 222.277,120.827 Z"
      /><path
     d="M 263.174,120.682 C 259.789,120.682 257.988,119.17 256.836,115.858 L 256.621,115.858 C 254.029,118.882 250.284,120.827 245.964,120.827 240.995,120.827 237.611,117.803 237.611,113.194 237.611,107.29 241.068,105.273 244.668,103.905 248.772,102.321 253.741,101.097 256.766,99.369 L 256.766,95.337 C 256.766,94.041 256.549,88.065 250.573,88.065 247.837,88.065 246.828,89.721 246.18,90.513 246.18,91.593 246.828,93.177 246.828,94.761 246.828,96.273 245.244,97.858 242.652,97.858 240.276,97.858 239.412,95.985 239.412,94.113 239.412,89.793 245.533,86.481 251.005,86.481 258.133,86.481 263.389,87.561 263.389,97.137 263.389,103.474 263.03,110.89 263.03,113.267 263.03,114.347 264.038,116.939 266.415,116.939 268.79,116.939 269.007,114.131 269.224,111.395 L 270.808,111.395 C 270.373,118.091 267.637,120.682 263.174,120.682 Z M 244.596,112.114 C 244.596,116.074 246.396,117.875 249.492,117.875 253.236,117.875 254.821,116.219 256.548,114.059 L 256.836,101.457 C 249.636,103.689 244.596,105.706 244.596,112.114 Z"
      /><path
     d="M 271.234,119.963 271.234,118.523 C 272.531,118.452 273.394,118.307 274.402,118.019 275.771,117.587 276.347,116.363 276.347,114.779 L 276.347,73.952 C 276.202,72.296 275.554,70.64 274.402,69.848 273.539,69.272 270.658,68.48 269.363,68.408 L 269.363,67.04 282.394,66.248 282.9,66.752 282.9,114.349 C 282.9,115.933 283.546,117.085 284.843,117.661 285.923,118.165 286.716,118.453 288.011,118.524 L 288.011,119.964 271.234,119.964 Z"
      /><path
     d="M 324.929,120.899 C 319.097,120.899 315.281,119.026 313.12,117.298 L 310.599,120.682 308.152,120.682 307.648,103.832 309.304,103.832 C 312.255,111.465 316.865,118.738 325.792,118.738 332.202,118.738 334.938,115.065 334.938,109.665 334.938,105.272 332.202,101.96 327.881,100.232 323.776,98.576 321.615,97.784 317.584,95.983 312.039,93.535 309.086,89.575 309.086,83.167 309.086,75.534 315.279,69.846 323.488,69.846 327.232,69.846 331.336,71.502 333.857,73.447 L 336.304,70.062 338.753,70.062 339.112,86.408 337.528,86.408 C 334.647,78.271 331.407,72.007 321.758,72.007 319.67,72.007 314.916,73.736 314.916,79.352 314.916,83.745 317.293,86.264 321.254,88.424 324.781,90.368 327.807,91.017 331.047,92.601 337.238,95.41 341.199,98.289 341.199,105.922 341.202,114.706 334.218,120.899 324.929,120.899 Z"
      /><path
     d="M 360.875,120.971 C 352.234,120.971 344.602,114.418 344.602,103.833 344.602,93.608 351.299,86.48 361.379,86.48 371.461,86.48 377.797,93.752 377.797,103.329 377.797,112.906 371.748,120.971 360.875,120.971 Z M 361.307,88.136 C 353.819,88.136 351.875,96.417 351.875,103.258 351.875,111.826 354.539,119.315 361.307,119.315 367.717,119.315 370.524,112.043 370.524,103.402 370.523,95.841 368.291,88.136 361.307,88.136 Z"
      /><path
     d="M 396.796,120.827 C 386.355,120.827 381.171,113.482 381.171,103.546 381.171,94.689 387.29,86.481 397.155,86.481 404.571,86.481 408.315,90.441 408.315,94.834 408.315,97.21 407.092,98.866 404.571,98.866 403.132,98.866 400.54,98.074 400.54,95.265 400.54,92.241 401.476,92.169 401.476,90.801 401.117,88.712 399.675,88.208 397.156,88.208 392.908,88.208 388.443,92.024 388.443,102.897 388.443,111.322 392.187,117.659 398.523,117.659 403.636,117.659 406.373,115.427 408.75,111.25 L 410.117,112.258 C 407.452,117.011 402.483,120.827 396.796,120.827 Z"
      /><path
     d="M 411.402,119.963 411.402,118.523 C 412.697,118.452 413.562,118.307 414.57,118.019 415.939,117.587 416.513,116.219 416.513,114.779 L 416.513,94.112 C 416.37,92.6 415.722,91.304 414.57,90.512 413.707,89.936 411.617,89.215 410.322,89.144 L 410.322,87.776 422.562,86.984 423.066,87.488 423.066,114.346 C 423.066,115.858 423.714,117.082 425.011,117.658 426.163,118.162 427.243,118.45 428.179,118.521 L 428.179,119.961 411.402,119.961 Z M 419.18,77.264 C 416.803,77.264 414.787,75.247 414.787,72.871 414.787,70.423 416.803,68.334 419.18,68.334 421.844,68.334 423.715,70.278 423.715,72.583 423.715,75.102 421.771,77.264 419.18,77.264 Z"
      /><path
     d="M 445.676,120.827 C 434.803,120.827 429.762,112.906 429.762,103.401 429.762,94.76 435.307,86.48 444.883,86.48 454.748,86.48 458.348,92.96 458.348,100.305 L 458.348,100.952 436.891,100.952 436.891,101.744 C 436.891,111.033 439.914,117.658 447.62,117.658 453.237,117.658 455.036,115.641 457.772,111.249 L 459.069,112.113 C 456.549,117.226 451.723,120.827 445.676,120.827 Z M 444.81,88.136 C 440.275,88.136 437.105,92.601 436.89,99.369 L 451.363,99.225 C 451.363,94.041 450.283,88.136 444.81,88.136 Z"
      /><path
     d="M 474.404,120.682 C 468.498,120.682 465.691,117.154 465.691,110.745 L 465.691,90.655 458.777,90.655 458.777,87.487 465.834,87.487 465.834,76.398 472.1,76.398 472.1,87.487 481.965,87.487 481.965,90.655 472.172,90.655 472.172,109.881 C 472.172,113.985 473.324,116.65 477.715,116.65 481.389,116.65 481.676,113.77 482.108,111.034 L 483.692,111.034 C 483.115,116.219 479.732,120.682 474.404,120.682 Z"
      /><path
     d="M 512.391,92.816 C 510.735,96.632 507.28,105.057 504.471,111.754 502.528,116.578 501.014,120.467 500.727,121.043 494.319,135.588 491.727,136.236 487.407,136.236 485.462,136.236 482.077,134.94 482.077,131.34 482.077,129.468 483.661,127.163 486.182,127.163 487.766,127.163 489.926,127.884 489.926,130.764 L 489.926,133.285 C 494.102,132.277 498.926,120.683 498.926,120.683 493.887,107.938 492.158,104.121 487.334,92.456 486.469,90.44 484.094,89.216 482.004,88.928 L 482.004,87.489 497.774,87.489 497.774,89.073 C 496.118,89.145 493.887,89.433 493.887,90.585 493.887,90.657 494.03,91.233 494.391,92.098 495.758,95.77 499.43,104.41 502.383,111.9 L 502.528,111.9 C 505.264,105.347 507.28,100.594 510.016,93.466 510.231,92.89 510.448,92.026 510.448,91.449 510.448,90.01 506.415,89.001 505.264,88.857 L 505.264,87.489 517.721,87.489 517.721,88.785 C 516.352,89 513.401,90.728 512.391,92.816 Z"
      /><g
     transform="translate(-135.421,-195.548)" fill="#c83138"><path
       d="M 490.035,374.656 490.035,373.072 C 491.332,373 494.717,372.712 495.724,372.352 497.02,371.919 497.956,370.551 497.956,368.967 L 497.956,336.636 C 497.163,336.852 496.011,336.996 494.716,336.996 492.411,336.996 489.243,334.836 486.651,332.676 L 487.298,331.451 C 489.458,332.388 491.98,333.107 494.859,333.107 498.964,333.107 502.853,331.307 504.941,330.083 L 505.877,330.083 C 505.373,333.107 504.869,337.645 504.869,340.885 L 504.869,368.607 C 504.869,370.12 505.661,371.488 506.957,372.064 508.037,372.568 511.061,373 512.357,373.072 L 512.357,374.656 490.035,374.656 Z"
         /><path
       d="M 535.696,354.639 C 532.96,361.768 530.943,367.456 530.367,377.105 530.152,380.345 528.855,383.297 525.615,383.297 523.239,383.297 521.943,382.073 521.943,378.257 521.943,374.8 526.767,365.079 530.656,357.591 534.545,350.103 537.352,345.35 541.816,338.221 L 522.447,338.221 C 517.623,338.221 515.318,343.694 514.67,346.646 L 513.231,346.287 517.551,327.781 518.847,327.781 519.423,331.813 547.649,331.813 547.649,332.461 C 541.961,340.669 539.225,345.494 535.696,354.639 Z"
         /><path
       d="M 556.511,382.001 C 549.814,382.001 546.863,377.753 546.863,374.656 546.863,371.847 548.158,370.479 550.752,370.479 554.207,370.479 553.848,374.656 554.856,376.888 555.864,379.12 557.448,379.768 559.463,379.768 567.744,379.768 573.217,368.031 574.369,355.358 L 573.865,355.286 C 571.705,358.239 568.033,361.551 562.199,361.551 555.576,361.551 549.238,356.295 549.238,346.646 549.238,338.87 554.566,330.013 565.369,330.013 573.072,330.013 581.57,334.909 581.57,351.254 581.569,367.023 572.28,382.001 556.511,382.001 Z M 565.368,331.669 C 558.022,331.669 556.798,339.518 556.798,345.277 556.798,354.134 559.319,358.526 565.368,358.526 569.04,358.526 574.727,355.503 574.727,345.925 574.728,336.421 569.976,331.669 565.368,331.669 Z"
         /><path
       d="M 587.635,374.656 587.635,373.072 C 588.932,373 592.315,372.712 593.324,372.352 594.619,371.919 595.554,370.551 595.554,368.967 L 595.554,336.636 C 594.763,336.852 593.611,336.996 592.314,336.996 590.011,336.996 586.841,334.836 584.25,332.676 L 584.898,331.451 C 587.058,332.388 589.578,333.107 592.459,333.107 596.564,333.107 600.451,331.307 602.541,330.083 L 603.477,330.083 C 602.973,333.107 602.469,337.645 602.469,340.885 L 602.469,368.607 C 602.469,370.12 603.26,371.488 604.557,372.064 605.637,372.568 608.661,373 609.957,373.072 L 609.957,374.656 587.635,374.656 Z"
         /></g><path
     d="M 239.838,152.028 241.38,146.466 223.365,146.466 222.969,147.732 223.13,147.741 C 223.668,147.77 224.977,148.051 225.484,148.273 225.914,148.473 226.052,148.656 226.052,149.023 226.052,149.198 225.99,149.476 225.928,149.758 L 221.607,165.439 C 221.402,166.226 220.99,166.708 220.311,166.952 219.775,167.141 218.083,167.329 217.665,167.329 L 217.574,167.329 217.173,168.571 227.612,168.571 228.007,167.306 227.847,167.297 C 227.308,167.267 225.999,166.985 225.493,166.764 225.063,166.564 224.926,166.381 224.926,166.014 224.926,165.929 224.935,165.624 225.05,165.28 L 227.104,157.948 229.953,157.948 C 231.632,157.948 232.003,158.484 232.279,158.882 232.421,159.109 232.516,159.75 232.516,160.479 232.516,161.026 232.482,161.543 232.422,161.899 L 232.397,162.045 233.6,162.045 236.229,152.579 234.957,152.579 234.925,152.657 C 234.618,153.424 233.799,155.049 233.199,155.521 232.707,155.948 231.865,156.514 230.241,156.514 L 227.462,156.514 229.888,147.901 234.017,147.901 C 235.116,147.901 235.88,147.94 236.496,148.028 237.896,148.219 238.628,149.994 238.628,151.648 L 238.628,152.029 239.838,152.029 Z"
       /><path
     d="M 247.519,153.282 C 241.491,153.282 238.466,159.639 238.466,163.198 238.466,167.198 240.986,169.019 243.326,169.019 249.375,169.019 252.411,162.682 252.411,159.134 252.412,155.113 249.875,153.282 247.519,153.282 Z M 243.903,167.809 C 242.518,167.809 241.724,166.35 241.724,163.806 241.724,159.916 243.709,154.492 246.943,154.492 247.462,154.492 249.154,154.776 249.154,158.43 249.154,162.362 247.329,167.809 243.903,167.809 Z"
       /><path
     d="M 271.663,163.937 C 270.98,165.617 270.207,167.521 268.799,167.521 268.129,167.521 267.804,167.196 267.804,166.526 267.804,165.945 268.098,164.704 268.31,164.069 L 271.692,153.73 268.483,153.73 265.266,164.033 C 264.332,165.689 262.609,167.361 260.863,167.361 259.997,167.361 259.42,167.11 259.42,165.886 259.42,165.421 259.622,164.661 260.02,163.627 L 261.941,158.667 C 262.372,157.54 262.621,156.737 262.621,155.966 262.621,154.121 260.897,153.281 259.295,153.281 256.835,153.281 255.555,155.672 254.539,158.256 L 254.489,158.383 255.69,158.743 255.732,158.635 C 256.482,156.681 257.426,154.684 258.751,154.684 259.26,154.684 259.555,154.847 259.555,155.679 259.555,156.018 259.387,156.968 258.923,158.194 L 257.132,162.864 C 256.768,163.758 256.483,164.818 256.483,165.278 256.483,167.323 258.204,168.987 260.32,168.987 262.254,168.987 263.994,167.501 265.031,166.046 265.107,167.955 266.191,168.923 268.256,168.923 270.664,168.923 271.903,166.655 272.884,164.205 L 272.933,164.083 271.768,163.683 271.663,163.937 Z"
       /><path
     d="M 291.852,163.789 C 290.81,166.173 290.157,167.521 288.83,167.521 288.38,167.521 287.899,167.444 287.899,166.526 287.899,166.047 288.253,165.043 288.595,164.074 L 290.323,159.432 C 290.626,158.592 290.939,157.449 290.939,156.991 290.939,154.911 289.268,153.282 287.134,153.282 285.043,153.282 283.407,154.98 282.551,156.109 282.459,153.779 280.828,153.282 279.454,153.282 276.994,153.282 275.715,155.673 274.698,158.257 L 274.648,158.384 275.849,158.744 275.891,158.636 C 276.64,156.682 277.584,154.685 278.91,154.685 279.41,154.685 279.681,154.843 279.681,155.68 279.681,156.04 279.336,157.427 279.079,158.2 L 275.655,168.407 275.599,168.572 278.776,168.572 281.996,158.776 C 282.973,156.851 284.762,154.909 286.557,154.909 287.318,154.909 288,155.014 288,156.288 288,156.97 287.58,158.162 287.399,158.643 L 285.545,163.599 C 285.105,164.668 284.831,165.494 284.831,166.303 284.831,168.375 287.068,168.923 288.252,168.923 290.731,168.923 292.047,166.538 293.007,164.206 L 293.058,164.083 291.896,163.684 291.852,163.789 Z"
       /><path
     d="M 305.89,144.904 305.89,146.104 306.01,146.109 C 306.188,146.116 306.358,146.122 306.524,146.127 307.114,146.146 307.623,146.162 308.239,146.236 309.093,146.347 309.442,146.608 309.442,147.135 309.442,147.492 309.291,148.162 308.966,149.242 L 307.173,155.211 C 306.657,154.015 305.509,153.281 304.127,153.281 298.432,153.281 294.946,160.012 294.946,163.677 294.946,168.091 297.45,169.018 299.55,169.018 301.228,169.018 302.947,167.98 304.294,166.162 304.411,168.602 306.002,168.922 307.39,168.922 309.798,168.922 311.037,166.654 312.018,164.204 L 312.067,164.082 310.902,163.682 310.838,163.84 C 310.171,165.48 309.34,167.521 307.935,167.521 307.265,167.521 306.94,167.196 306.94,166.526 306.94,166.015 307.134,165.073 307.446,164.067 L 313.494,144.741 313.548,144.571 306.01,144.899 305.89,144.904 Z M 306.651,156.895 304.403,164.35 C 303.291,166.215 301.692,167.329 300.127,167.329 299.443,167.329 298.3,167.329 298.3,164.35 298.3,160.497 300.72,154.556 303.935,154.556 305.388,154.556 306.127,155.191 306.651,156.895 Z"
       /><path
     d="M 325.978,155.711 C 325.978,154.235 324.886,153.282 323.197,153.282 317.154,153.282 313.857,160.213 313.857,163.774 313.857,168.508 317.368,169.019 318.878,169.019 320.62,169.019 323.164,168.13 325.388,163.897 L 325.45,163.781 324.262,163.226 324.206,163.332 C 323.115,165.424 321.784,167.36 319.454,167.36 317.837,167.36 317.115,166.491 317.115,164.542 317.115,163.697 317.293,162.624 317.474,161.901 321.417,161.28 325.978,159.294 325.978,155.711 Z M 322.206,154.524 C 323.071,154.524 323.457,154.999 323.457,156.063 323.457,157.767 321.667,159.916 317.743,160.67 318.639,157.655 320.477,154.524 322.206,154.524 Z"
       /><path
     d="M 346.196,144.741 346.25,144.571 338.712,144.899 338.593,144.904 338.593,146.104 338.713,146.109 C 338.891,146.116 339.061,146.122 339.227,146.127 339.817,146.146 340.326,146.162 340.942,146.236 341.796,146.347 342.145,146.608 342.145,147.135 342.145,147.492 341.994,148.162 341.669,149.242 L 339.876,155.211 C 339.36,154.015 338.212,153.281 336.83,153.281 331.135,153.281 327.649,160.012 327.649,163.677 327.649,168.091 330.153,169.018 332.253,169.018 333.931,169.018 335.65,167.98 336.997,166.162 337.114,168.602 338.705,168.922 340.093,168.922 342.501,168.922 343.74,166.654 344.721,164.204 L 344.77,164.082 343.605,163.682 343.541,163.84 C 342.874,165.48 342.043,167.521 340.638,167.521 339.968,167.521 339.643,167.196 339.643,166.526 339.643,166.015 339.837,165.073 340.149,164.067 L 346.196,144.741 Z M 339.354,156.895 337.106,164.35 C 335.994,166.215 334.395,167.329 332.83,167.329 332.146,167.329 331.003,167.329 331.003,164.35 331.003,160.497 333.423,154.556 336.638,154.556 338.091,154.556 338.83,155.191 339.354,156.895 Z"
       /></svg>