<?xml version="1.0" encoding="UTF-8" standalone="no"?>
<svg
   xmlns="http://www.w3.org/2000/svg"
   viewBox="0 0 1553.6838 87.487626"
   height="87.487625"
   width="1553.6838"
   xml:space="preserve"
   version="1.1"
   ><g transform="matrix(1.25,0,0,-1.25,-70.484875,151.87875)" id="g4192"><g transform="scale(0.1,0.1)"><path
         style="fill:#231f20;fill-opacity:1;fill-rule:nonzero;stroke:none"
         d="m 973.594,676.32 0,15.84 c 12.965,0.73 52.562,4.33 62.648,9.37 16.563,8.64 23.039,20.15 23.039,36.72 l 0,368.67 -186.492,-422.68 -13.684,0 c -8.64,28.09 -24.48,69.14 -38.164,100.09 l -139.691,312.51 0,-283.7 c 0,-54.73 8.641,-85.69 24.484,-98.66 12.243,-10.07 61.204,-21.59 74.164,-22.32 l 0,-15.84 -216.019,0 0,15.84 c 12.238,1.45 49.687,5.77 66.969,18.01 17.277,12.24 23.761,43.92 23.761,99.37 l 0,263.54 c 0,29.52 -7.921,47.52 -22.324,59.04 -17.277,13.68 -45.363,19.45 -64.805,20.16 l 0,15.85 162.012,0 167.059,-366.52 134.652,305.31 c 11.52,26.64 15.84,53.28 16.559,61.21 l 162.728,0 0,-15.85 c -12.95,-0.71 -40.32,-5.04 -53.28,-9.36 -18,-5.76 -22.32,-19.44 -22.32,-35.28 l 0,-369.39 c 0,-15.84 5.76,-27.37 22.32,-35.29 8.64,-4.32 41.04,-10.07 54.01,-10.8 l 0,-15.84 -237.626,0" /><path
         style="fill:#231f20;fill-opacity:1;fill-rule:nonzero;stroke:none"
         d="m 1297.5,754.81 c 0,-39.6 18,-57.61 48.96,-57.61 37.44,0 53.28,16.56 70.57,38.16 l 2.87,126.02 c -72,-22.33 -122.4,-42.49 -122.4,-106.57 z m 185.77,-85.68 c -33.84,0 -51.84,15.11 -63.37,48.24 l -2.15,0 c -25.93,-30.24 -63.37,-49.69 -106.57,-49.69 -49.69,0 -83.53,30.25 -83.53,76.33 0,59.04 34.56,79.21 70.56,92.89 41.05,15.84 90.73,28.07 120.98,45.36 l 0,40.32 c 0,12.96 -2.16,72.72 -61.93,72.72 -27.36,0 -37.44,-16.56 -43.92,-24.48 0,-10.8 6.48,-26.64 6.48,-42.48 0,-15.11 -15.84,-30.96 -41.77,-30.96 -23.76,0 -32.4,18.73 -32.4,37.45 0,43.2 61.21,76.31 115.93,76.31 71.29,0 123.85,-10.8 123.85,-106.55 0,-63.38 -3.6,-137.54 -3.6,-161.3 0,-10.81 10.08,-36.72 33.84,-36.72 23.76,0 25.93,28.07 28.09,55.44 l 15.84,0 c -4.32,-66.97 -31.68,-92.88 -76.33,-92.88" /><path
         style="fill:#231f20;fill-opacity:1;fill-rule:nonzero;stroke:none"
         d="m 1699.9,666.24 c -35.28,0 -73.44,16.56 -85.68,28.8 l -7.2,-22.32 -23.77,0 -3.6,111.61 15.13,0 c 7.92,-35.28 51.12,-100.81 108.73,-100.81 50.4,0 67.68,26.65 67.68,61.93 0,37.44 -28.08,52.56 -84.25,69.12 -46.08,13.69 -97.93,40.32 -97.93,102.25 0,53.29 41.05,94.32 108.01,94.32 28.09,0 56.89,-6.47 74.89,-18.71 l 5.76,19.44 22.32,0 5.05,-99.37 -15.13,0 c -7.2,41.05 -43.92,82.09 -95.05,82.09 -43.92,0 -56.16,-25.2 -56.16,-51.84 0,-41.05 24.48,-48.97 84.25,-68.41 59.04,-19.45 97.93,-46.08 97.93,-105.13 0,-64.09 -53.29,-102.97 -120.98,-102.97" /><path
         style="fill:#231f20;fill-opacity:1;fill-rule:nonzero;stroke:none"
         d="m 1987.03,666.24 c -35.28,0 -73.45,16.56 -85.68,28.8 l -7.2,-22.32 -23.77,0 -3.6,111.61 15.13,0 c 7.92,-35.28 51.12,-100.81 108.73,-100.81 50.4,0 67.68,26.65 67.68,61.93 0,37.44 -28.08,52.56 -84.25,69.12 -46.08,13.69 -97.93,40.32 -97.93,102.25 0,53.29 41.05,94.32 108.01,94.32 28.09,0 56.89,-6.47 74.89,-18.71 l 5.76,19.44 22.32,0 5.04,-99.37 -15.12,0 c -7.2,41.05 -43.92,82.09 -95.05,82.09 -43.92,0 -56.16,-25.2 -56.16,-51.84 0,-41.05 24.48,-48.97 84.24,-68.41 59.05,-19.45 97.93,-46.08 97.93,-105.13 0,-64.09 -53.28,-102.97 -120.97,-102.97" /><path
         style="fill:#231f20;fill-opacity:1;fill-rule:nonzero;stroke:none"
         d="m 2227.36,754.81 c 0,-39.6 18,-57.61 48.96,-57.61 37.45,0 53.29,16.56 70.57,38.16 l 2.88,126.02 c -72.01,-22.33 -122.41,-42.49 -122.41,-106.57 z m 185.78,-85.68 c -33.85,0 -51.85,15.11 -63.37,48.24 l -2.16,0 c -25.92,-30.24 -63.37,-49.69 -106.57,-49.69 -49.69,0 -83.53,30.25 -83.53,76.33 0,59.04 34.57,79.21 70.57,92.89 41.04,15.84 90.72,28.07 120.97,45.36 l 0,40.32 c 0,12.96 -2.16,72.72 -61.92,72.72 -27.37,0 -37.45,-16.56 -43.93,-24.48 0,-10.8 6.48,-26.64 6.48,-42.48 0,-15.11 -15.84,-30.96 -41.76,-30.96 -23.76,0 -32.41,18.73 -32.41,37.45 0,43.2 61.21,76.31 115.94,76.31 71.28,0 123.84,-10.8 123.84,-106.55 0,-63.38 -3.59,-137.54 -3.59,-161.3 0,-10.81 10.07,-36.72 33.84,-36.72 23.76,0 25.92,28.07 28.08,55.44 l 15.84,0 c -4.32,-66.97 -31.68,-92.88 -76.32,-92.88" /><path
         style="fill:#231f20;fill-opacity:1;fill-rule:nonzero;stroke:none"
         d="m 2651.37,667.68 c -104.41,0 -156.26,73.45 -156.26,172.81 0,88.58 61.21,170.65 159.86,170.65 74.16,0 111.61,-39.59 111.61,-83.52 0,-23.76 -12.25,-40.32 -37.45,-40.32 -14.4,0 -40.32,7.92 -40.32,36 0,30.25 9.36,30.96 9.36,44.64 -3.6,20.89 -18,25.93 -43.2,25.93 -42.49,0 -87.13,-38.16 -87.13,-146.89 0,-84.25 37.44,-147.62 100.81,-147.62 51.13,0 78.49,22.32 102.24,64.09 l 13.7,-10.07 c -26.64,-47.54 -76.34,-85.7 -133.22,-85.7" /><path
         style="fill:#231f20;fill-opacity:1;fill-rule:nonzero;stroke:none"
         d="m 2993.36,676.32 0,14.41 c 12.96,0.71 23.77,2.16 33.84,5.04 13.69,4.31 19.46,16.56 19.46,32.4 l 0,173.53 c 0,49.69 -28.81,77.04 -59.77,77.04 -52.58,0 -82.09,-33.83 -90.02,-50.4 l 0,-196.57 c 0,-15.85 6.49,-26.65 19.45,-32.41 10.81,-5.04 20.88,-7.92 33.83,-8.63 l 0,-14.41 -169.92,0 0,14.41 c 12.95,0.71 21.6,2.16 31.68,5.04 13.67,4.31 19.43,16.56 19.43,32.4 l 0,410.43 c -1.42,15.12 -7.91,33.85 -19.43,41.76 -8.65,5.77 -35.29,10.8 -48.24,11.53 l 0,13.68 128.16,7.92 5.04,-5.04 0,-256.35 1.45,0 c 27.36,26.64 56.17,59.04 118.08,59.04 66.98,0 96.49,-45.35 96.49,-113.76 l 0,-166.33 c 0,-15.84 5.76,-26.64 18.73,-32.41 10.08,-4.32 18.71,-7.2 31.68,-7.91 l 0,-14.41 -169.94,0" /><path
         style="fill:#231f20;fill-opacity:1;fill-rule:nonzero;stroke:none"
         d="m 3418.09,674.89 -5.04,5.04 0,43.91 -2.17,0 c -27.36,-27.35 -53.28,-56.16 -115.19,-56.16 -66.97,0 -93.61,49.69 -93.61,117.37 l 0,151.21 c -1.45,15.13 -7.21,28.09 -18.73,36.01 -8.64,5.76 -23.03,10.8 -36,11.52 l 0,13.68 115.94,8.64 5.04,-5.04 0,-228.98 c 0,-49.68 25.91,-75.6 56.87,-75.6 52.56,0 77.77,33.83 87.13,48.96 l 0,192.97 c -1.45,15.13 -7.21,28.09 -18.73,36.01 -8.63,5.76 -28.07,8.64 -46.8,9.36 l 0,13.68 126.02,8.64 5.04,-5.04 0,-260.67 c 1.44,-15.11 7.2,-26.64 18.71,-34.56 8.65,-5.76 21.6,-8.64 34.57,-9.35 l 0,-13.69 -113.05,-7.91" /><path
         style="fill:#231f20;fill-opacity:1;fill-rule:nonzero;stroke:none"
         d="m 3677.2,666.24 c -35.27,0 -73.43,16.56 -85.68,28.8 l -7.21,-22.32 -23.75,0 -3.59,111.61 15.12,0 c 7.91,-35.28 51.11,-100.81 108.73,-100.81 50.39,0 67.67,26.65 67.67,61.93 0,37.44 -28.08,52.56 -84.24,69.12 -46.09,13.69 -97.93,40.32 -97.93,102.25 0,53.29 41.04,94.32 108.01,94.32 28.09,0 56.88,-6.47 74.88,-18.71 l 5.77,19.44 22.32,0 5.04,-99.37 -15.12,0 c -7.2,41.05 -43.92,82.09 -95.06,82.09 -43.92,0 -56.15,-25.2 -56.15,-51.84 0,-41.05 24.47,-48.97 84.24,-68.41 59.04,-19.45 97.93,-46.08 97.93,-105.13 0,-64.09 -53.28,-102.97 -120.98,-102.97" /><path
         style="fill:#231f20;fill-opacity:1;fill-rule:nonzero;stroke:none"
         d="m 3984.58,994.59 c -45.37,0 -77.05,-44.64 -79.22,-112.33 l 144.74,1.44 c 0,51.84 -10.8,110.89 -65.52,110.89 z m 8.63,-326.91 c -108.73,0 -159.12,79.21 -159.12,174.26 0,86.4 55.43,169.2 151.21,169.2 98.63,0 134.65,-64.8 134.65,-138.25 l 0,-6.47 -214.59,0 0,-7.92 c 0,-92.89 30.25,-159.14 107.3,-159.14 56.15,0 74.16,20.16 101.53,64.09 l 12.94,-8.64 c -25.19,-51.13 -73.43,-87.13 -133.92,-87.13" /><path
         style="fill:#231f20;fill-opacity:1;fill-rule:nonzero;stroke:none"
         d="m 4276.11,669.13 c -59.06,0 -87.13,35.28 -87.13,99.36 l 0,200.9 -69.14,0 0,30.95 70.57,0 0,111.62 62.65,0 0,-111.62 98.65,0 0,-30.95 -97.92,0 0,-192.26 c 0,-41.04 11.52,-67.68 55.42,-67.68 36.74,0 39.61,28.8 43.93,56.16 l 15.84,0 c -5.76,-51.85 -39.59,-96.48 -92.87,-96.48" /><path
         style="fill:#231f20;fill-opacity:1;fill-rule:nonzero;stroke:none"
         d="m 4504.27,669.13 c -59.04,0 -87.13,35.28 -87.13,99.36 l 0,200.9 -69.12,0 0,30.95 70.57,0 0,111.62 62.64,0 0,-111.62 98.65,0 0,-30.95 -97.93,0 0,-192.26 c 0,-41.04 11.52,-67.68 55.45,-67.68 36.72,0 39.61,28.8 43.92,56.16 l 15.84,0 c -5.76,-51.85 -39.61,-96.48 -92.89,-96.48" /><path
         style="fill:#231f20;fill-opacity:1;fill-rule:nonzero;stroke:none"
         d="m 4737.46,666.24 c -35.28,0 -73.44,16.56 -85.69,28.8 l -7.2,-22.32 -23.75,0 -3.6,111.61 15.12,0 c 7.91,-35.28 51.11,-100.81 108.73,-100.81 50.39,0 67.68,26.65 67.68,61.93 0,37.44 -28.09,52.56 -84.24,69.12 -46.1,13.69 -97.93,40.32 -97.93,102.25 0,53.29 41.03,94.32 108.01,94.32 28.08,0 56.87,-6.47 74.88,-18.71 l 5.76,19.44 22.32,0 5.04,-99.37 -15.11,0 c -7.21,41.05 -43.93,82.09 -95.06,82.09 -43.93,0 -56.15,-25.2 -56.15,-51.84 0,-41.05 24.47,-48.97 84.23,-68.41 59.05,-19.45 97.93,-46.08 97.93,-105.13 0,-64.09 -53.28,-102.97 -120.97,-102.97" /><path
         style="fill:#231f20;fill-opacity:1;fill-rule:nonzero;stroke:none"
         d="m 5363.305,677.859 0,15.84 c 12.965,0.723 42.488,3.602 51.847,7.199 17.286,6.481 22.325,19.442 22.325,35.282 l 0,185.785 -248.422,0 0,-182.184 c 0,-15.832 5.758,-28.07 22.324,-35.281 8.637,-3.602 38.879,-10.078 51.84,-10.801 l 0,-15.84 -223.219,0 0,15.84 c 12.9609,0.723 41.043,3.602 50.4063,7.199 17.2773,6.481 22.3164,19.442 22.3164,35.282 l 0,369.39 c 0,15.85 -5.0391,28.09 -22.3164,35.29 -12.2422,5.04 -37.4454,12.25 -50.4063,12.96 l 0,15.85 223.219,0 0,-15.85 c -12.961,-0.71 -38.883,-5.04 -51.84,-9.36 -18.004,-5.76 -22.324,-19.44 -22.324,-35.28 l 0,-163.457 248.422,0 0,159.847 c 0,15.85 -5.762,28.09 -22.325,35.29 -12.242,5.04 -38.882,12.25 -51.847,12.96 l 0,15.85 223.222,0 0,-15.85 c -12.964,-0.71 -37.445,-5.04 -50.406,-9.36 -18,-5.76 -22.32,-19.44 -22.32,-35.28 l 0,-369.399 c 0,-15.832 5.762,-27.359 22.32,-35.281 8.645,-4.309 37.442,-10.078 50.406,-10.801 l 0,-15.84 -223.222,0" /><path
         style="fill:#231f20;fill-opacity:1;fill-rule:nonzero;stroke:none"
         d="m 5678.648,1094.84 c -23.761,0 -43.925,20.17 -43.925,43.93 0,24.48 20.164,45.37 43.925,45.37 26.641,0 45.368,-19.44 45.368,-42.49 0,-25.2 -19.446,-46.81 -45.368,-46.81 z m -77.769,-416.981 0,14.411 c 12.965,0.71 21.605,2.152 31.684,5.031 13.683,4.32 19.445,18 19.445,32.41 l 0,206.656 c -1.442,15.117 -7.922,28.074 -19.445,35.996 -8.641,5.762 -29.52,12.969 -42.485,13.684 l 0,13.68 122.41,7.913 5.039,-5.03 0,-268.59 c 0,-15.11 6.489,-27.36 19.446,-33.122 11.523,-5.039 22.324,-7.918 31.683,-8.628 l 0,-14.411 -167.777,0" /><path
         style="fill:#231f20;fill-opacity:1;fill-rule:nonzero;stroke:none"
         d="m 5919.125,667.781 c -35.281,0 -73.445,16.571 -85.684,28.797 l -7.203,-22.316 -23.761,0 -3.598,111.609 15.121,0 c 7.918,-35.281 51.121,-100.812 108.73,-100.812 50.399,0 67.684,26.652 67.684,61.929 0,37.442 -28.086,52.563 -84.246,69.121 -46.086,13.68 -97.93,40.332 -97.93,102.25 0,53.289 41.043,94.321 108.008,94.321 28.086,0 56.883,-6.47 74.887,-18.715 l 5.762,19.445 22.32,0 5.043,-99.367 -15.121,0 c -7.203,41.047 -43.926,82.09 -95.051,82.09 -43.926,0 -56.164,-25.207 -56.164,-51.848 0,-41.043 24.48,-48.965 84.246,-68.406 59.047,-19.438 97.932,-46.09 97.932,-105.129 0,-64.09 -53.287,-102.969 -120.975,-102.969" /><path
         style="fill:#231f20;fill-opacity:1;fill-rule:nonzero;stroke:none"
         d="m 6201.36,670.66 c -59.05,0 -87.13,35.289 -87.13,99.371 l 0,200.895 -69.12,0 0,30.964 70.56,0 0,111.61 62.65,0 0,-111.61 98.64,0 0,-30.964 -97.92,0 0,-192.254 c 0,-41.043 11.52,-67.684 55.44,-67.684 36.73,0 39.61,28.793 43.92,56.16 l 15.85,0 c -5.76,-51.847 -39.61,-96.488 -92.89,-96.488" /><path
         style="fill:#231f20;fill-opacity:1;fill-rule:nonzero;stroke:none"
         d="m 6461.99,996.133 c -74.88,0 -94.32,-82.813 -94.32,-151.223 0,-85.68 26.64,-160.558 94.32,-160.558 64.09,0 92.17,72.718 92.17,159.128 0,75.602 -22.32,152.653 -92.17,152.653 z m -4.32,-328.352 c -86.41,0 -162.73,65.528 -162.73,171.379 0,102.246 66.96,173.52 167.77,173.52 100.81,0 164.18,-72.719 164.18,-168.481 0,-95.769 -60.49,-176.418 -169.22,-176.418" /><path
         style="fill:#231f20;fill-opacity:1;fill-rule:nonzero;stroke:none"
         d="m 6873.12,921.965 c -23.05,0 -38.89,10.078 -38.89,34.558 0,7.207 5.04,12.957 5.04,22.325 -36.72,0 -63.36,-30.965 -72,-46.805 l 0,-198.734 c 0,-15.848 6.48,-27.36 19.44,-32.411 12.24,-5.039 33.12,-7.918 46.8,-8.628 l 0,-14.411 -182.89,0 0,14.411 c 12.95,0.71 21.6,2.152 31.68,5.031 13.68,4.32 19.44,16.57 19.44,32.41 l 0,206.656 c -1.44,15.117 -7.92,30.235 -19.44,38.164 -8.64,5.75 -22.32,10.801 -35.28,11.516 l 0,13.68 115.21,7.913 5.04,-5.03 0,-48.969 1.44,0 c 30.96,39.613 66.96,57.609 97.2,57.609 22.33,0 45.37,-20.164 45.37,-43.926 0,-25.195 -13.68,-45.359 -38.16,-45.359" /><path
         style="fill:#231f20;fill-opacity:1;fill-rule:nonzero;stroke:none"
         d="m 7006.29,1094.84 c -23.76,0 -43.92,20.17 -43.92,43.93 0,24.48 20.16,45.37 43.92,45.37 26.64,0 45.37,-19.44 45.37,-42.49 0,-25.2 -19.45,-46.81 -45.37,-46.81 z m -77.77,-416.981 0,14.411 c 12.96,0.71 21.61,2.152 31.69,5.031 13.68,4.32 19.44,18 19.44,32.41 l 0,206.656 c -1.44,15.117 -7.92,28.074 -19.44,35.996 -8.65,5.762 -29.53,12.969 -42.49,13.684 l 0,13.68 122.41,7.913 5.04,-5.03 0,-268.59 c 0,-15.11 6.49,-27.36 19.44,-33.122 11.53,-5.039 22.33,-7.918 31.69,-8.628 l 0,-14.411 -167.78,0" /><path
         style="fill:#231f20;fill-opacity:1;fill-rule:nonzero;stroke:none"
         d="m 7262.76,669.219 c -104.41,0 -156.26,73.453 -156.26,172.812 0,88.574 61.21,170.649 159.86,170.649 74.16,0 111.61,-39.594 111.61,-83.52 0,-23.762 -12.24,-40.32 -37.45,-40.32 -14.4,0 -40.32,7.918 -40.32,36.004 0,30.246 9.36,30.957 9.36,44.636 -3.6,20.891 -18,25.93 -43.2,25.93 -42.49,0 -87.13,-38.164 -87.13,-146.89 0,-84.25 37.44,-147.622 100.81,-147.622 51.12,0 78.49,22.321 102.25,64.09 l 13.68,-10.078 c -26.64,-47.531 -76.33,-85.691 -133.21,-85.691" /><path
         style="fill:#231f20;fill-opacity:1;fill-rule:nonzero;stroke:none"
         d="m 7485.95,756.352 c 0,-39.602 18,-57.614 48.96,-57.614 37.44,0 53.29,16.563 70.56,38.16 l 2.88,126.024 c -72,-22.32 -122.4,-42.492 -122.4,-106.57 z m 185.78,-85.692 c -33.85,0 -51.86,15.121 -63.38,48.25 l -2.15,0 c -25.92,-30.25 -63.37,-49.691 -106.57,-49.691 -49.69,0 -83.53,30.242 -83.53,76.332 0,59.039 34.56,79.211 70.57,92.89 41.04,15.84 90.73,28.071 120.98,45.36 l 0,40.32 c 0,12.957 -2.18,72.723 -61.94,72.723 -27.36,0 -37.44,-16.563 -43.92,-24.481 0,-10.8 6.48,-26.64 6.48,-42.48 0,-15.117 -15.84,-30.965 -41.77,-30.965 -23.76,0 -32.4,18.727 -32.4,37.449 0,43.203 61.21,76.313 115.93,76.313 71.29,0 123.85,-10.79 123.85,-106.559 0,-63.371 -3.6,-137.531 -3.6,-161.301 0,-10.8 10.08,-36.711 33.85,-36.711 23.75,0 25.92,28.071 28.09,55.43 l 15.84,0 c -4.34,-66.961 -31.7,-92.879 -76.33,-92.879" /><path
         style="fill:#231f20;fill-opacity:1;fill-rule:nonzero;stroke:none"
         d="m 7752.33,677.859 0,14.411 c 12.97,0.71 21.61,2.152 31.68,5.031 13.7,4.32 19.46,16.57 19.46,32.41 l 0,408.269 c -1.45,16.56 -7.93,33.12 -19.46,41.04 -8.63,5.77 -37.44,13.68 -50.39,14.41 l 0,13.68 130.32,7.92 5.05,-5.04 0,-475.97 c 0,-15.84 6.47,-27.36 19.44,-33.122 10.8,-5.039 18.73,-7.918 31.68,-8.628 l 0,-14.411 -167.78,0" /><path
         style="fill:#231f20;fill-opacity:1;fill-rule:nonzero;stroke:none"
         d="m 8289.28,668.5 c -58.32,0 -96.49,18.73 -118.09,36 l -25.21,-33.84 -24.48,0 -5.04,168.5 16.57,0 c 29.51,-76.332 75.6,-149.058 164.88,-149.058 64.1,0 91.47,36.726 91.47,90.726 0,43.934 -27.37,77.051 -70.57,94.332 -41.06,16.559 -62.66,24.477 -102.97,42.485 -55.45,24.484 -84.98,64.082 -84.98,128.165 0,76.33 61.93,133.21 144.02,133.21 37.44,0 78.48,-16.56 103.69,-36 l 24.48,33.84 24.49,0 3.59,-163.45 -15.84,0 c -28.81,81.36 -61.21,144.01 -157.69,144.01 -20.88,0 -68.42,-17.28 -68.42,-73.45 0,-43.92 23.77,-69.12 63.38,-90.716 35.27,-19.445 65.53,-25.93 97.93,-41.77 61.91,-28.086 101.52,-56.886 101.52,-133.214 0,-87.84 -69.84,-149.77 -162.73,-149.77" /><path
         style="fill:#231f20;fill-opacity:1;fill-rule:nonzero;stroke:none"
         d="m 8653.06,996.133 c -74.89,0 -94.32,-82.813 -94.32,-151.223 0,-85.68 26.64,-160.558 94.32,-160.558 64.1,0 92.16,72.718 92.16,159.128 0,75.602 -22.32,152.653 -92.16,152.653 z m -4.32,-328.352 c -86.41,0 -162.73,65.528 -162.73,171.379 0,102.246 66.97,173.52 167.77,173.52 100.82,0 164.18,-72.719 164.18,-168.481 0,-95.769 -60.49,-176.418 -169.22,-176.418" /><path
         style="fill:#231f20;fill-opacity:1;fill-rule:nonzero;stroke:none"
         d="m 9007.95,669.219 c -104.41,0 -156.25,73.453 -156.25,172.812 0,88.574 61.19,170.649 159.84,170.649 74.16,0 111.6,-39.594 111.6,-83.52 0,-23.762 -12.22,-40.32 -37.44,-40.32 -14.39,0 -40.31,7.918 -40.31,36.004 0,30.246 9.36,30.957 9.36,44.636 -3.6,20.891 -18.01,25.93 -43.21,25.93 -42.48,0 -87.13,-38.164 -87.13,-146.89 0,-84.25 37.45,-147.622 100.8,-147.622 51.14,0 78.5,22.321 102.27,64.09 l 13.67,-10.078 c -26.64,-47.531 -76.33,-85.691 -133.2,-85.691" /><path
         style="fill:#231f20;fill-opacity:1;fill-rule:nonzero;stroke:none"
         d="m 9231.79,1104.85 c -23.77,0 -43.93,20.17 -43.93,43.93 0,24.48 20.16,45.37 43.93,45.37 26.64,0 45.35,-19.44 45.35,-42.49 0,-25.2 -19.43,-46.81 -45.35,-46.81 z m -77.78,-426.991 0,14.411 c 12.95,0.71 21.61,2.152 31.68,5.031 13.69,4.32 19.44,18 19.44,32.41 l 0,206.656 c -1.43,15.117 -7.91,28.074 -19.44,35.996 -8.63,5.762 -29.53,12.969 -42.48,13.684 l 0,13.68 122.41,7.913 5.03,-5.03 0,-268.59 c 0,-15.11 6.49,-27.36 19.46,-33.122 11.52,-5.039 22.32,-7.918 31.68,-8.628 l 0,-14.411 -167.78,0" /><path
         style="fill:#231f20;fill-opacity:1;fill-rule:nonzero;stroke:none"
         d="m 9488.1,996.133 c -45.36,0 -77.06,-44.649 -79.2,-112.332 l 144.72,1.433 c 0,51.844 -10.8,110.899 -65.52,110.899 z m 8.65,-326.914 c -108.73,0 -159.14,79.211 -159.14,174.261 0,86.403 55.45,169.2 151.21,169.2 98.65,0 134.65,-64.797 134.65,-138.25 l 0,-6.469 -214.57,0 0,-7.922 c 0,-92.891 30.23,-159.141 107.28,-159.141 56.17,0 74.16,20.161 101.53,64.09 l 12.96,-8.636 c -25.19,-51.133 -73.45,-87.133 -133.92,-87.133" /><path
         style="fill:#231f20;fill-opacity:1;fill-rule:nonzero;stroke:none"
         d="m 9784.03,670.66 c -59.06,0 -87.13,35.289 -87.13,99.371 l 0,200.895 -69.14,0 0,31.684 70.57,0 0,110.89 62.66,0 0,-110.89 98.65,0 0,-31.684 -97.93,0 0,-192.254 c 0,-41.043 11.52,-67.684 55.43,-67.684 36.74,0 39.61,28.793 43.92,56.16 l 15.84,0 c -5.76,-51.847 -39.59,-96.488 -92.87,-96.488" /><path
         style="fill:#231f20;fill-opacity:1;fill-rule:nonzero;stroke:none"
         d="m 10163.91,949.324 c -16.57,-38.164 -51.12,-122.414 -79.2,-189.375 -19.44,-48.238 -34.57,-87.129 -37.44,-92.89 -64.09,-145.45 -90,-151.93 -133.21,-151.93 -19.45,0 -53.3,12.961 -53.3,48.961 0,18.719 15.84,41.769 41.06,41.769 15.84,0 37.44,-7.211 37.44,-36.007 l 0,-25.204 c 41.76,10.082 90,126.012 90,126.012 -50.39,127.449 -67.68,165.621 -115.92,282.27 -8.65,20.156 -32.4,32.402 -53.3,35.285 l 0,14.395 157.69,0 0,-15.844 c -16.56,-0.719 -38.86,-3.602 -38.86,-15.118 0,-0.722 1.42,-6.48 5.04,-15.125 13.67,-36.718 50.39,-123.125 79.92,-198.011 l 1.44,0 c 27.37,65.519 47.52,113.047 74.89,184.332 2.14,5.758 4.31,14.402 4.31,20.164 0,14.394 -40.33,24.48 -51.83,25.918 l 0,13.684 124.57,0 0,-12.962 c -13.69,-2.16 -43.21,-19.445 -53.3,-40.324" /><path
         style="fill:#000000;fill-opacity:1;fill-rule:nonzero;stroke:none"
         d="m 11794.13,678.4102 0,15.8398 c 12.97,0.719 46.82,3.602 56.9,7.191 12.96,4.329 22.32,18.008 22.32,33.848 l 0,323.313 c -7.93,-2.161 -19.45,-3.602 -32.4,-3.602 -23.05,0 -54.73,21.602 -80.66,43.199 l 6.48,12.25 c 21.6,-9.371 46.82,-16.57 75.61,-16.57 41.05,0 79.94,18 100.82,30.25 l 9.35,0 c -5.04,-30.25 -10.08,-75.617 -10.08,-108.02 l 0,-277.218 c 0,-15.121 7.92,-28.801 20.88,-34.571 10.8,-5.039 41.05,-9.351 54.01,-10.07 l 0,-15.8398 -223.23,0" /><path
         style="fill:#000000;fill-opacity:1;fill-rule:nonzero;stroke:none"
         d="m 12250.74,878.578 c -27.36,-71.289 -47.53,-128.168 -53.29,-224.6561 -2.15,-32.4024 -15.11,-61.9219 -47.52,-61.9219 -23.76,0 -36.72,12.2383 -36.72,50.3984 0,34.5704 48.25,131.7816 87.13,206.6606 38.89,74.882 66.97,122.41 111.61,193.703 l -193.7,0 c -48.24,0 -71.29,-54.731 -77.77,-84.25 l -14.39,3.597 43.2,185.063 12.96,0 5.76,-40.332 282.26,0 0,-6.481 c -56.88,-82.078 -84.24,-130.328 -119.53,-221.781" /><path
         style="fill:#000000;fill-opacity:1;fill-rule:nonzero;stroke:none"
         d="m 12547.46,1108.281 c -73.45,0 -85.7,-78.492 -85.7,-136.082 0,-88.578 25.21,-132.5 85.7,-132.5 36.72,0 93.6,30.242 93.6,126.012 0,95.051 -47.52,142.57 -93.6,142.57 z m -88.57,-503.3201 c -66.97,0 -96.49,42.4805 -96.49,73.4493 0,28.0778 12.95,41.7618 38.89,41.7618 34.55,0 30.96,-41.7618 41.04,-64.0939 10.07,-22.3164 25.91,-28.7968 46.07,-28.7968 82.81,0 137.54,117.3787 149.06,244.0977 l -5.04,0.73 c -21.6,-29.527 -58.32,-62.648 -116.66,-62.648 -66.23,0 -129.61,52.559 -129.61,149.051 0,77.769 53.29,166.328 161.31,166.328 77.03,0 162.01,-48.961 162.01,-212.41 0,-157.7 -92.89,-307.4691 -250.58,-307.4691" /><path
         style="fill:#000000;fill-opacity:1;fill-rule:nonzero;stroke:none"
         d="m 12770.13,678.4102 0,15.8398 c 12.97,0.719 46.8,3.602 56.89,7.191 12.95,4.329 22.31,18.008 22.31,33.848 l 0,323.313 c -7.91,-2.161 -19.44,-3.602 -32.4,-3.602 -23.03,0 -54.73,21.602 -80.65,43.199 l 6.49,12.25 c 21.6,-9.371 46.79,-16.57 75.6,-16.57 41.06,0 79.92,18 100.82,30.25 l 9.36,0 c -5.04,-30.25 -10.08,-75.617 -10.08,-108.02 l 0,-277.218 c 0,-15.121 7.91,-28.801 20.88,-34.571 10.8,-5.039 41.03,-9.351 54,-10.07 l 0,-15.8398 -223.22,0" /><path
         style="fill:#000000;fill-opacity:1;fill-rule:nonzero;stroke:none"
         d="m 10646.37,949.211 15.42,55.609 -180.15,0 -3.96,-12.648 1.61,-0.09 c 5.38,-0.301 18.47,-3.102 23.53,-5.32 4.31,-2.012 5.69,-3.832 5.69,-7.5 0,-1.75 -0.62,-4.543 -1.24,-7.364 l -43.21,-156.796 c -2.05,-7.883 -6.17,-12.692 -12.96,-15.133 -5.36,-1.899 -22.27,-3.77 -26.46,-3.77 l -0.91,0 -4.01,-12.418 104.39,0 3.95,12.641 -1.6,0.09 c -5.39,0.297 -18.48,3.117 -23.54,5.328 -4.29,2.012 -5.67,3.832 -5.67,7.5 0,0.851 0.09,3.898 1.23,7.351 l 20.55,73.321 28.48,0 c 16.79,0 20.5,-5.364 23.26,-9.34 1.41,-2.262 2.37,-8.684 2.37,-15.973 0,-5.461 -0.35,-10.64 -0.94,-14.187 l -0.25,-1.461 12.03,0 26.29,94.66 -12.72,0 -0.32,-0.781 c -3.07,-7.668 -11.27,-23.918 -17.26,-28.649 -4.92,-4.261 -13.34,-9.929 -29.58,-9.929 l -27.79,0 24.26,86.136 41.29,0 c 10.99,0 18.63,-0.386 24.79,-1.269 14,-1.918 21.32,-19.66 21.32,-36.199 l 0,-3.809 12.11,0" /><path
         style="fill:#000000;fill-opacity:1;fill-rule:nonzero;stroke:none"
         d="m 10687.02,791.391 c -13.85,0 -21.79,14.589 -21.79,40.031 0,38.898 19.85,93.148 52.19,93.148 5.18,0 22.11,-2.84 22.11,-39.39 0,-39.309 -18.25,-93.789 -52.51,-93.789 z m 36.16,145.281 c -60.28,0 -90.53,-63.582 -90.53,-99.16 0,-40 25.2,-58.223 48.61,-58.223 60.49,0 90.85,63.371 90.85,98.852 0,40.218 -25.36,58.531 -48.93,58.531" /><path
         style="fill:#000000;fill-opacity:1;fill-rule:nonzero;stroke:none"
         d="m 10964.62,830.109 c -6.83,-16.789 -14.56,-35.828 -28.64,-35.828 -6.7,0 -9.95,3.25 -9.95,9.949 0,5.809 2.94,18.219 5.06,24.571 l 33.81,103.39 -32.09,0 -32.16,-103.031 c -9.34,-16.558 -26.58,-33.281 -44.03,-33.281 -8.66,0 -14.44,2.512 -14.44,14.742 0,4.649 2.02,12.25 6.01,22.59 l 19.2,49.598 c 4.31,11.269 6.8,19.3 6.8,27.011 0,18.45 -17.24,26.852 -33.26,26.852 -24.6,0 -37.39,-23.91 -47.55,-49.75 l -0.5,-1.274 12.01,-3.597 0.41,1.078 c 7.5,19.543 16.94,39.512 30.2,39.512 5.08,0 8.03,-1.629 8.03,-9.95 0,-3.39 -1.68,-12.89 -6.32,-25.14 l -17.91,-46.699 c -3.64,-8.942 -6.49,-19.543 -6.49,-24.141 0,-20.449 17.21,-37.09 38.37,-37.09 19.34,0 36.74,14.859 47.11,29.41 0.76,-19.09 11.6,-28.769 32.25,-28.769 24.08,0 36.47,22.679 46.28,47.179 l 0.49,1.219 -11.65,4 -1.04,-2.551" /><path
         style="fill:#000000;fill-opacity:1;fill-rule:nonzero;stroke:none"
         d="m 11166.52,831.602 c -10.42,-23.84 -16.96,-37.321 -30.23,-37.321 -4.5,0 -9.31,0.77 -9.31,9.949 0,4.782 3.55,14.829 6.97,24.52 l 17.27,46.41 c 3.03,8.399 6.16,19.84 6.16,24.422 0,20.797 -16.7,37.09 -38.04,37.09 -20.91,0 -37.27,-16.981 -45.83,-28.274 -0.92,23.301 -17.23,28.274 -30.97,28.274 -24.6,0 -37.39,-23.91 -47.56,-49.75 l -0.5,-1.274 12.02,-3.597 0.42,1.078 c 7.49,19.543 16.93,39.512 30.18,39.512 5,0 7.72,-1.582 7.72,-9.95 0,-3.601 -3.45,-17.472 -6.02,-25.191 l -34.24,-102.07 -0.55,-1.649 31.76,0 32.2,97.957 c 9.77,19.242 27.66,38.672 45.61,38.672 7.6,0 14.43,-1.058 14.43,-13.789 0,-6.82 -4.2,-18.742 -6.01,-23.562 l -18.53,-49.559 c -4.41,-10.691 -7.14,-18.941 -7.14,-27.039 0,-20.723 22.37,-26.199 34.21,-26.199 24.78,0 37.95,23.847 47.55,47.168 l 0.51,1.23 -11.63,3.988 -0.45,-1.046" /><path
         style="fill:#000000;fill-opacity:1;fill-rule:nonzero;stroke:none"
         d="m 11314.5,900.531 -22.48,-74.551 c -11.12,-18.652 -27.11,-29.781 -42.76,-29.781 -6.84,0 -18.27,0 -18.27,29.781 0,38.532 24.2,97.942 56.35,97.942 14.53,0 21.92,-6.34 27.16,-23.391 z m -7.61,119.918 0,-12 1.2,-0.051 c 1.78,-0.066 3.47,-0.128 5.13,-0.179 5.9,-0.188 10.99,-0.348 17.15,-1.09 8.55,-1.117 12.03,-3.719 12.03,-9 0,-3.57 -1.51,-10.27 -4.75,-21.07 l -17.93,-59.688 c -5.16,11.957 -16.64,19.301 -30.46,19.301 -56.95,0 -91.81,-67.32 -91.81,-103.973 0,-44.14 25.04,-53.41 46.05,-53.41 16.78,0 33.97,10.391 47.44,28.57 1.17,-24.41 17.08,-27.597 30.96,-27.597 24.08,0 36.47,22.679 46.28,47.179 l 0.48,1.219 -11.65,4 -0.64,-1.582 c -6.67,-16.387 -14.98,-36.797 -29.03,-36.797 -6.7,0 -9.96,3.25 -9.96,9.949 0,5.098 1.95,14.532 5.06,24.59 l 60.48,193.262 0.54,1.699 -75.38,-3.281 -1.19,-0.051" /><path
         style="fill:#000000;fill-opacity:1;fill-rule:nonzero;stroke:none"
         d="m 11470.05,924.25 c 8.65,0 12.51,-4.75 12.51,-15.391 0,-17.05 -17.9,-38.531 -57.14,-46.078 8.96,30.16 27.35,61.469 44.63,61.469 z m 37.73,-11.871 c 0,14.762 -10.92,24.293 -27.82,24.293 -60.43,0 -93.4,-69.313 -93.4,-104.922 0,-47.352 35.11,-52.461 50.21,-52.461 17.42,0 42.86,8.891 65.1,51.231 l 0.61,1.16 -11.87,5.539 -0.56,-1.059 c -10.91,-20.922 -24.22,-40.281 -47.52,-40.281 -16.17,0 -23.39,8.691 -23.39,28.18 0,8.453 1.78,19.179 3.6,26.41 39.42,6.222 85.04,26.082 85.04,61.91" /><path
         style="fill:#000000;fill-opacity:1;fill-rule:nonzero;stroke:none"
         d="m 11641.54,900.531 -22.49,-74.551 c -11.12,-18.652 -27.1,-29.781 -42.76,-29.781 -6.83,0 -18.27,0 -18.27,29.781 0,38.532 24.2,97.942 56.35,97.942 14.53,0 21.92,-6.34 27.17,-23.391 z m 68.41,121.551 0.54,1.699 -75.38,-3.281 -1.19,-0.051 0,-12 1.2,-0.051 c 1.78,-0.066 3.48,-0.128 5.14,-0.179 5.89,-0.188 10.98,-0.348 17.14,-1.09 8.55,-1.117 12.04,-3.719 12.04,-9 0,-3.57 -1.52,-10.27 -4.76,-21.07 l -17.93,-59.688 c -5.16,11.957 -16.64,19.301 -30.46,19.301 -56.95,0 -91.81,-67.32 -91.81,-103.973 0,-44.14 25.04,-53.41 46.05,-53.41 16.78,0 33.97,10.391 47.44,28.57 1.17,-24.41 17.08,-27.597 30.96,-27.597 24.08,0 36.47,22.679 46.28,47.179 l 0.49,1.219 -11.66,4 -0.64,-1.582 c -6.67,-16.387 -14.98,-36.797 -29.03,-36.797 -6.7,0 -9.95,3.25 -9.95,9.949 0,5.098 1.94,14.532 5.05,24.59 l 60.48,193.262" /></g></g></svg>